<svg xmlns="http://www.w3.org/2000/svg" viewBox="0 0 64 64" xmlns:v="https://vecta.io/nano"><path d="M47.003 22.325c.195.195.451.293.707.293s.512-.098.707-.293c1.329-1.328 2.062-3.095 2.062-4.975s-.732-3.646-2.062-4.975a1 1 0 0 0-1.414 1.414c.951.951 1.476 2.216 1.476 3.56s-.524 2.609-1.476 3.561a1 1 0 0 0 0 1.414zm-30.956.293c.256 0 .512-.098.707-.293a1 1 0 0 0 0-1.414c-1.963-1.963-1.963-5.158 0-7.121a1 1 0 0 0-1.414-1.414c-2.743 2.743-2.743 7.206 0 9.949.195.195.451.293.707.293zm37.49-13.656a1 1 0 0 0-1.414 1.414c3.846 3.846 3.846 10.104 0 13.949a1 1 0 0 0 0 1.414c.195.195.451.293.707.293s.512-.098.707-.293a11.88 11.88 0 0 0 0-16.777zm4.988-4.828a1 1 0 0 0-1.414 1.414c6.508 6.509 6.508 17.099 0 23.606a1 1 0 0 0 0 1.414c.195.195.451.293.707.293s.512-.098.707-.293c7.288-7.287 7.288-19.146 0-26.435zM11.633 8.962a1 1 0 0 0-1.414 0 11.88 11.88 0 0 0 0 16.777c.195.195.451.293.707.293s.512-.098.707-.293a1 1 0 0 0 0-1.414 9.88 9.88 0 0 1 0-13.949 1 1 0 0 0 0-1.414zM6.889 5.548a1 1 0 0 0-1.414-1.414c-7.288 7.288-7.288 19.147 0 26.435.195.195.451.293.707.293s.512-.098.707-.293a1 1 0 0 0 0-1.414c-6.508-6.508-6.508-17.098 0-23.606zm42.763 52.611H32.827a1 1 0 0 0 .076-.376V25.767c3.668-.49 6.5-3.624 6.5-7.426a7.5 7.5 0 1 0-15 0c0 3.802 2.832 6.936 6.5 7.426v32.017a1 1 0 0 0 .076.376H14.153a1 1 0 1 0 0 2h35.499a1 1 0 1 0 0-2zm-23.25-39.818a5.51 5.51 0 0 1 5.5-5.5 5.51 5.51 0 0 1 5.5 5.5 5.51 5.51 0 0 1-5.5 5.5 5.51 5.51 0 0 1-5.5-5.5z"/></svg>