<svg version="1.1" id="Capa_1" xmlns="http://www.w3.org/2000/svg" xmlns:xlink="http://www.w3.org/1999/xlink" x="0px" y="0px"	 viewBox="0 0 296.108 296.108" style="enable-background:new 0 0 296.108 296.108;" xml:space="preserve"><g>	

<path d="M256.277,184.039L154.274,85.358c-3.088-2.985-7.98-3.003-11.088-0.035l-103.667,99c-2.364,2.258-3.116,5.727-1.9,8.762 c1.216,3.034,4.156,5.023,7.426,5.023h18.667v90c0,4.418,3.915,8,8.333,8h42.667v-59c0-4.418,3.915-8,8.333-8h50 c4.418,0,7.667,3.582,7.667,8v59h43.333c4.418,0,7.667-3.582,7.667-8v-90h19.333c0.007,0,0.013,0,0.019,0c4.419,0,8-3.582,8-8	C259.064,187.682,257.984,185.507,256.277,184.039z"/>	
<path d="M86.144,49.641C102.678,33.105,124.662,24,148.045,24s45.366,9.105,61.9,25.641c2.344,2.344,5.414,3.515,8.485,3.515 c3.07,0,6.143-1.172,8.485-3.515c4.686-4.686,4.686-12.284,0-16.971C205.848,11.602,177.838,0,148.045,0 S90.241,11.602,69.173,32.67c-4.687,4.687-4.687,12.284,0,16.971C73.861,54.326,81.459,54.326,86.144,49.641z"/>	
<path d="M95.375,63.443c-4.687,4.686-4.687,12.284,0,16.971c4.688,4.686,12.285,4.686,16.971,0 c9.535-9.536,22.214-14.788,35.699-14.788c13.485,0,26.164,5.252,35.699,14.788c2.344,2.343,5.414,3.515,8.485,3.515 c3.07,0,6.143-1.172,8.485-3.515c4.686-4.687,4.686-12.284,0-16.971c-14.068-14.069-32.773-21.817-52.67-21.817 C128.148,41.626,109.443,49.374,95.375,63.443z"/>

</g></svg>